# xmcd
#
# Track frame offsets:
#	150
#	18980
#	35192
#	44822
#	58444
#	74847
#	88862
#	101279
#	118052
#	131482
#	147269
#	157932
#	176492
#	190469
#	202157
#	215804
#	231474
#	242344
#	253249
#	264182
#	278179
#
# Disc length: 3872 seconds
#
# Revision: 2
# Processed by: cddbd v1.5.1PL0 Copyright (c) Steve Scherf et al.
# Submitted via: audiograbber 1.83.01
#
DISCID=520f1e15
DTITLE=Various Artist - The story of fado
DYEAR=1900
DGENRE=
TTITLE0=01.alfredo mrceneiro - Casa mariquinhas
TTITLE1=02.Carlos ramos - No venhas tarde
TTITLE2=03.Berta cardoso - Tia machete
TTITLE3=04.Hermina silva - a  tendinha
TTITLE4=05.Max - A rosinha do limoes
TTITLE5=06.Maria teres de noronha - Rosa enjeitada
TTITLE6=07.Antonio do santos - Partir e morrer um poco
TTITLE7=08.Lucilia do carmo - Foi na travessa de palha
TTITLE8=09.Amalia rodrigues - Track  9
TTITLE9=10.Tony de matos - Lisboa A noite
TTITLE10=11.Tristao da silva - Aquela janela virada pro mar
TTITLE11=12.Vincente da camara - Fado das caldas
TTITLE12=13.Fernando farinha - Belos tempos
TTITLE13=14.Hermano da camara - Colchetes de oiro
TTITLE14=15.Antonio mourao - Fadista louco
TTITLE15=16.Fernanda maria - Saudde vai-te embora
TTITLE16=17.Joao ferrera rosa - Embucado
TTITLE17=18.Teresa silva carvalho - amar com coração
TTITLE18=19.Carlos do carmo - Saudade mal do fado
TTITLE19=20.Joao braga - Arraial
TTITLE20=21.Mari da fé - Ate a voz me doacarvalo ruso
EXTD=
EXTT0=
EXTT1=
EXTT2=
EXTT3=
EXTT4=
EXTT5=
EXTT6=
EXTT7=
EXTT8=
EXTT9=
EXTT10=
EXTT11=
EXTT12=
EXTT13=
EXTT14=
EXTT15=
EXTT16=
EXTT17=
EXTT18=
EXTT19=
EXTT20=
PLAYORDER=
